<svg width="77" height="77" viewBox="0 0 77 77" fill="none" xmlns="http://www.w3.org/2000/svg">
<rect width="77" height="77" rx="9" fill="#CBC8C8" fill-opacity="0.35"/>
<path d="M46.2173 22.0386C46.3262 21.4263 46.8585 20.9802 47.4804 20.9802H58.1594C58.7813 20.9802 59.3137 21.4263 59.4225 22.0386L64.3659 49.8452L65.4064 61.8104C65.5367 63.3095 64.355 64.5984 62.8502 64.5984H42.7896C41.2848 64.5984 40.1031 63.3095 40.2335 61.8104L41.2739 49.8452L46.2173 22.0386Z" fill="#DF8D12"/>
<path fill-rule="evenodd" clip-rule="evenodd" d="M40.0006 49.677L44.954 21.8139C45.1717 20.5894 46.2364 19.6973 47.4802 19.6973H58.1592C59.403 19.6973 60.4677 20.5894 60.6854 21.8139L65.6388 49.677L66.6842 61.6992C66.8798 63.9478 65.1072 65.8813 62.85 65.8813H42.7894C40.5323 65.8813 38.7597 63.9478 38.9552 61.6992L40.0006 49.677ZM47.4802 20.9802C46.8583 20.9802 46.326 21.4262 46.2171 22.0385L41.2737 49.8452L40.2333 61.8103C40.1029 63.3094 41.2846 64.5984 42.7894 64.5984H62.85C64.3548 64.5984 65.5365 63.3094 65.4062 61.8103L64.3657 49.8452L59.4223 22.0385C59.3134 21.4262 58.7811 20.9802 58.1592 20.9802H47.4802Z" fill="#5B3303"/>
<path d="M42.8004 64.5984H62.8389C64.3477 64.5984 65.5308 63.3028 65.3942 61.8003L64.5778 52.8201C64.4576 51.4985 63.3496 50.4866 62.0225 50.4866H43.6167C42.2897 50.4866 41.1816 51.4985 41.0615 52.8201L40.2451 61.8003C40.1085 63.3028 41.2916 64.5984 42.8004 64.5984Z" fill="#FFB423"/>
<path d="M41.0725 52.8332L40.3115 61.7119L59.8756 50.4866H43.629C42.2968 50.4866 41.1863 51.506 41.0725 52.8332Z" fill="#FFC149"/>
<path d="M48.33 22.2629L43.8398 47.9207L57.3102 22.2629H48.33Z" fill="#E9981F"/>
<path fill-rule="evenodd" clip-rule="evenodd" d="M47.7937 21.6302C48.1432 21.6884 48.3793 22.0189 48.321 22.3683L43.8309 49.309C43.7727 49.6584 43.4422 49.8945 43.0927 49.8363C42.7433 49.778 42.5072 49.4475 42.5655 49.0981L47.0556 22.1574C47.1138 21.808 47.4443 21.5719 47.7937 21.6302Z" fill="#FFC351"/>
<path fill-rule="evenodd" clip-rule="evenodd" d="M44.2658 42.7979C44.6152 42.8561 44.8513 43.1866 44.7931 43.5361L43.8309 49.3091C43.7727 49.6585 43.4422 49.8946 43.0927 49.8363C42.7433 49.7781 42.5072 49.4476 42.5655 49.0982L43.5276 43.3252C43.5859 42.9757 43.9164 42.7397 44.2658 42.7979Z" fill="#FFD991"/>
<path fill-rule="evenodd" clip-rule="evenodd" d="M43.7364 52.4108C43.4028 52.4108 43.1249 52.6665 43.0972 52.999L42.8745 55.6713C42.845 56.0243 42.535 56.2867 42.182 56.2573C41.8289 56.2278 41.5666 55.9178 41.596 55.5648L41.8187 52.8925C41.9018 51.8951 42.7356 51.1279 43.7364 51.1279H46.4046C46.7589 51.1279 47.0461 51.4151 47.0461 51.7694C47.0461 52.1236 46.7589 52.4108 46.4046 52.4108H43.7364Z" fill="#FFFAED"/>
<path d="M59.2346 40.5442C59.2346 41.0756 58.5166 41.5064 57.631 41.5064C56.7453 41.5064 56.0273 41.0756 56.0273 40.5442C56.0273 40.0128 56.7453 39.582 57.631 39.582C58.5166 39.582 59.2346 40.0128 59.2346 40.5442Z" fill="#C17707"/>
<path d="M59.8763 36.3748C59.8763 36.7291 59.302 37.0163 58.5934 37.0163C57.8849 37.0163 57.3105 36.7291 57.3105 36.3748C57.3105 36.0206 57.8849 35.7334 58.5934 35.7334C59.302 35.7334 59.8763 36.0206 59.8763 36.3748Z" fill="#C17707"/>
<path d="M57.9515 33.1676C57.9515 33.5218 57.3772 33.809 56.6686 33.809C55.9601 33.809 55.3857 33.5218 55.3857 33.1676C55.3857 32.8133 55.9601 32.5261 56.6686 32.5261C57.3772 32.5261 57.9515 32.8133 57.9515 33.1676Z" fill="#C17707"/>
<path d="M58.5934 28.9982C58.5934 29.1753 58.3063 29.3189 57.952 29.3189C57.5977 29.3189 57.3105 29.1753 57.3105 28.9982C57.3105 28.8211 57.5977 28.6775 57.952 28.6775C58.3063 28.6775 58.5934 28.8211 58.5934 28.9982Z" fill="#C17707"/>
<path d="M59.8757 31.5639C59.8757 31.741 59.5885 31.8846 59.2342 31.8846C58.88 31.8846 58.5928 31.741 58.5928 31.5639C58.5928 31.3868 58.88 31.2432 59.2342 31.2432C59.5885 31.2432 59.8757 31.3868 59.8757 31.5639Z" fill="#C17707"/>
<path d="M56.6686 35.4125C56.6686 35.5896 56.3814 35.7332 56.0272 35.7332C55.6729 35.7332 55.3857 35.5896 55.3857 35.4125C55.3857 35.2354 55.6729 35.0918 56.0272 35.0918C56.3814 35.0918 56.6686 35.2354 56.6686 35.4125Z" fill="#C17707"/>
<path d="M60.5173 38.6198C60.5173 38.7969 60.2301 38.9405 59.8758 38.9405C59.5216 38.9405 59.2344 38.7969 59.2344 38.6198C59.2344 38.4427 59.5216 38.2991 59.8758 38.2991C60.2301 38.2991 60.5173 38.4427 60.5173 38.6198Z" fill="#C17707"/>
<path d="M57.3102 37.9784C57.3102 38.1556 57.023 38.2992 56.6688 38.2992C56.3145 38.2992 56.0273 38.1556 56.0273 37.9784C56.0273 37.8013 56.3145 37.6577 56.6688 37.6577C57.023 37.6577 57.3102 37.8013 57.3102 37.9784Z" fill="#C17707"/>
<path d="M61.8002 43.4305C61.8002 43.7848 61.2258 44.072 60.5173 44.072C59.8087 44.072 59.2344 43.7848 59.2344 43.4305C59.2344 43.0762 59.8087 42.7891 60.5173 42.7891C61.2258 42.7891 61.8002 43.0762 61.8002 43.4305Z" fill="#C17707"/>
<path d="M62.4419 62.9946C62.4419 63.526 62.0111 63.9568 61.4797 63.9568C60.9484 63.9568 60.5176 63.526 60.5176 62.9946C60.5176 62.4632 60.9484 62.0325 61.4797 62.0325C62.0111 62.0325 62.4419 62.4632 62.4419 62.9946Z" fill="#FFC24B"/>
<path d="M64.3659 61.3912C64.3659 61.7455 64.0787 62.0326 63.7245 62.0326C63.3702 62.0326 63.083 61.7455 63.083 61.3912C63.083 61.0369 63.3702 60.7498 63.7245 60.7498C64.0787 60.7498 64.3659 61.0369 64.3659 61.3912Z" fill="#FFC24B"/>
<path d="M58.5921 63.3155C58.5921 63.6698 58.8793 63.957 59.2336 63.957C59.5878 63.957 59.875 63.6698 59.875 63.3155C59.875 62.9613 59.5878 62.6741 59.2336 62.6741C58.8793 62.6741 58.5921 62.9613 58.5921 63.3155Z" fill="#FFC24B"/>
<path d="M61.1585 60.1082C61.1585 60.4625 61.4457 60.7497 61.8 60.7497C62.1542 60.7497 62.4414 60.4625 62.4414 60.1082C62.4414 59.754 62.1542 59.4668 61.8 59.4668C61.4457 59.4668 61.1585 59.754 61.1585 60.1082Z" fill="#FFC24B"/>
<path d="M58.5932 61.0703C58.5932 61.6017 59.024 62.0325 59.5554 62.0325C60.0868 62.0325 60.5176 61.6017 60.5176 61.0703C60.5176 60.5389 60.0868 60.1082 59.5554 60.1082C59.024 60.1082 58.5932 60.5389 58.5932 61.0703Z" fill="#FFC24B"/>
<path d="M55.3861 62.6739C55.3861 63.0282 55.6732 63.3154 56.0275 63.3154C56.3818 63.3154 56.6689 63.0282 56.6689 62.6739C56.6689 62.3197 56.3818 62.0325 56.0275 62.0325C55.6732 62.0325 55.3861 62.3197 55.3861 62.6739Z" fill="#FFC24B"/>
<path d="M63.0833 58.1839C63.0833 58.5382 63.3705 58.8254 63.7248 58.8254C64.079 58.8254 64.3662 58.5382 64.3662 58.1839C64.3662 57.8297 64.079 57.5425 63.7248 57.5425C63.3705 57.5425 63.0833 57.8297 63.0833 58.1839Z" fill="#FFC24B"/>
<path d="M19.2769 22.0386C19.3858 21.4263 19.9181 20.9802 20.54 20.9802H31.219C31.8409 20.9802 32.3732 21.4263 32.4821 22.0386L37.4255 49.8452L38.4659 61.8104C38.5963 63.3095 37.4146 64.5984 35.9098 64.5984H15.8492C14.3444 64.5984 13.1627 63.3095 13.293 61.8104L14.3335 49.8452L19.2769 22.0386Z" fill="#FCB326"/>
<path fill-rule="evenodd" clip-rule="evenodd" d="M13.0602 49.677L18.0136 21.8139C18.2313 20.5894 19.296 19.6973 20.5398 19.6973H31.2188C32.4626 19.6973 33.5272 20.5894 33.745 21.8139L38.6984 49.677L39.7438 61.6992C39.9393 63.9478 38.1667 65.8813 35.9096 65.8813H15.849C13.5918 65.8813 11.8192 63.9478 12.0148 61.6992L13.0602 49.677ZM20.5398 20.9802C19.9179 20.9802 19.3855 21.4262 19.2767 22.0385L14.3333 49.8452L13.2928 61.8103C13.1625 63.3094 14.3442 64.5984 15.849 64.5984H35.9096C37.4143 64.5984 38.5961 63.3094 38.4657 61.8103L37.4253 49.8452L32.4819 22.0385C32.373 21.4262 31.8407 20.9802 31.2188 20.9802H20.5398Z" fill="#5B3303"/>
<path d="M15.8599 64.5984H35.8985C37.4072 64.5984 38.5903 63.3028 38.4537 61.8003L37.6373 52.8201C37.5172 51.4985 36.4091 50.4866 35.0821 50.4866H16.6763C15.3493 50.4866 14.2412 51.4985 14.1211 52.8201L13.3047 61.8003C13.1681 63.3028 14.3512 64.5984 15.8599 64.5984Z" fill="#FFB423"/>
<path d="M21.3895 22.2629L16.8994 47.9207L30.3697 22.2629H21.3895Z" fill="#FFC555"/>
<path fill-rule="evenodd" clip-rule="evenodd" d="M20.8533 21.6302C21.2028 21.6884 21.4388 22.0189 21.3806 22.3683L16.8905 49.309C16.8322 49.6584 16.5017 49.8945 16.1523 49.8363C15.8029 49.778 15.5668 49.4475 15.625 49.0981L20.1151 22.1574C20.1734 21.808 20.5039 21.5719 20.8533 21.6302Z" fill="#FFD179"/>
<path fill-rule="evenodd" clip-rule="evenodd" d="M17.3254 42.7979C17.6748 42.8561 17.9109 43.1866 17.8526 43.5361L16.8905 49.3091C16.8322 49.6585 16.5017 49.8946 16.1523 49.8363C15.8029 49.7781 15.5668 49.4476 15.625 49.0982L16.5872 43.3252C16.6454 42.9757 16.9759 42.7397 17.3254 42.7979Z" fill="#FFECC9"/>
<path d="M14.1321 52.8332L13.3711 61.7119L32.9352 50.4866H16.6885C15.3564 50.4866 14.2459 51.506 14.1321 52.8332Z" fill="#FFC149"/>
<path fill-rule="evenodd" clip-rule="evenodd" d="M16.7811 52.4108C16.4508 52.4108 16.1744 52.6617 16.1426 52.9905L15.2926 61.7736C15.2585 62.1262 14.945 62.3843 14.5924 62.3502C14.2398 62.3161 13.9816 62.0026 14.0157 61.65L14.8657 52.8669C14.9612 51.8805 15.7901 51.1279 16.7811 51.1279H34.2182C34.5725 51.1279 34.8597 51.4151 34.8597 51.7694C34.8597 52.1236 34.5725 52.4108 34.2182 52.4108H16.7811Z" fill="#FFE4A0"/>
<path fill-rule="evenodd" clip-rule="evenodd" d="M16.796 52.4108C16.4623 52.4108 16.1844 52.6665 16.1567 52.999L15.934 55.6713C15.9046 56.0243 15.5946 56.2867 15.2415 56.2573C14.8885 56.2278 14.6262 55.9178 14.6556 55.5648L14.8783 52.8925C14.9614 51.8951 15.7951 51.1279 16.796 51.1279H19.4642C19.8185 51.1279 20.1056 51.4151 20.1056 51.7694C20.1056 52.1236 19.8185 52.4108 19.4642 52.4108H16.796Z" fill="#FFFAED"/>
<path d="M35.5015 62.9946C35.5015 63.526 35.0707 63.9568 34.5393 63.9568C34.0079 63.9568 33.5771 63.526 33.5771 62.9946C33.5771 62.4632 34.0079 62.0325 34.5393 62.0325C35.0707 62.0325 35.5015 62.4632 35.5015 62.9946Z" fill="#FFC24B"/>
<path d="M37.4255 61.3912C37.4255 61.7455 37.1383 62.0326 36.784 62.0326C36.4298 62.0326 36.1426 61.7455 36.1426 61.3912C36.1426 61.0369 36.4298 60.7498 36.784 60.7498C37.1383 60.7498 37.4255 61.0369 37.4255 61.3912Z" fill="#FFC24B"/>
<path d="M31.6517 63.3155C31.6517 63.6698 31.9389 63.957 32.2931 63.957C32.6474 63.957 32.9346 63.6698 32.9346 63.3155C32.9346 62.9613 32.6474 62.6741 32.2931 62.6741C31.9389 62.6741 31.6517 62.9613 31.6517 63.3155Z" fill="#FFC24B"/>
<path d="M34.2181 60.1082C34.2181 60.4625 34.5053 60.7497 34.8595 60.7497C35.2138 60.7497 35.501 60.4625 35.501 60.1082C35.501 59.754 35.2138 59.4668 34.8595 59.4668C34.5053 59.4668 34.2181 59.754 34.2181 60.1082Z" fill="#FFC24B"/>
<path d="M31.6528 61.0703C31.6528 61.6017 32.0836 62.0325 32.615 62.0325C33.1464 62.0325 33.5771 61.6017 33.5771 61.0703C33.5771 60.5389 33.1464 60.1082 32.615 60.1082C32.0836 60.1082 31.6528 60.5389 31.6528 61.0703Z" fill="#FFC24B"/>
<path d="M28.4456 62.6739C28.4456 63.0282 28.7328 63.3154 29.0871 63.3154C29.4413 63.3154 29.7285 63.0282 29.7285 62.6739C29.7285 62.3197 29.4413 62.0325 29.0871 62.0325C28.7328 62.0325 28.4456 62.3197 28.4456 62.6739Z" fill="#FFC24B"/>
<path d="M36.1429 58.1839C36.1429 58.5382 36.4301 58.8254 36.7843 58.8254C37.1386 58.8254 37.4258 58.5382 37.4258 58.1839C37.4258 57.8297 37.1386 57.5425 36.7843 57.5425C36.4301 57.5425 36.1429 57.8297 36.1429 58.1839Z" fill="#FFC24B"/>
<path d="M33.3892 14.3413C33.4981 13.729 34.0304 13.283 34.6523 13.283H45.3313C45.9532 13.283 46.4855 13.729 46.5944 14.3413L51.5378 42.148L52.5783 54.1131C52.7086 55.6122 51.5269 56.9012 50.0221 56.9012H29.9615C28.4567 56.9012 27.275 55.6122 27.4053 54.1131L28.4458 42.148L33.3892 14.3413Z" fill="#FCB326"/>
<path fill-rule="evenodd" clip-rule="evenodd" d="M27.1725 41.9797L32.1259 14.1167C32.3436 12.8921 33.4083 12 34.6521 12H45.3311C46.5749 12 47.6396 12.8921 47.8573 14.1167L52.8107 41.9797L53.8561 54.0019C54.0516 56.2506 52.279 58.184 50.0219 58.184H29.9613C27.7041 58.184 25.9315 56.2506 26.1271 54.0019L27.1725 41.9797ZM34.6521 13.2829C34.0302 13.2829 33.4978 13.7289 33.389 14.3412L28.4456 42.1479L27.4051 54.1131C27.2748 55.6122 28.4565 56.9011 29.9613 56.9011H50.0219C51.5267 56.9011 52.7084 55.6122 52.578 54.1131L51.5376 42.1479L46.5942 14.3412C46.4853 13.7289 45.953 13.2829 45.3311 13.2829H34.6521Z" fill="#5B3303"/>
<path d="M29.9722 56.9011H50.0108C51.5196 56.9011 52.7026 55.6056 52.566 54.103L51.7497 45.1228C51.6295 43.8012 50.5214 42.7893 49.1944 42.7893H30.7886C29.4616 42.7893 28.3535 43.8012 28.2334 45.1228L27.417 54.103C27.2804 55.6056 28.4635 56.9011 29.9722 56.9011Z" fill="#FFCF23"/>
<path d="M35.5018 14.5657L31.0117 40.2235L44.4821 14.5657H35.5018Z" fill="#FFC555"/>
<path fill-rule="evenodd" clip-rule="evenodd" d="M34.9656 13.9329C35.3151 13.9911 35.5511 14.3216 35.4929 14.6711L31.0028 41.6117C30.9445 41.9612 30.614 42.1972 30.2646 42.139C29.9152 42.0808 29.6791 41.7503 29.7373 41.4008L34.2275 14.4602C34.2857 14.1107 34.6162 13.8747 34.9656 13.9329Z" fill="#FFD179"/>
<path fill-rule="evenodd" clip-rule="evenodd" d="M31.4377 35.1006C31.7871 35.1589 32.0232 35.4894 31.9649 35.8388L31.0028 41.6118C30.9445 41.9612 30.614 42.1973 30.2646 42.1391C29.9152 42.0808 29.6791 41.7503 29.7373 41.4009L30.6995 35.6279C30.7578 35.2784 31.0882 35.0424 31.4377 35.1006Z" fill="#FFECC9"/>
<path d="M28.2444 45.136L27.4834 54.0146L47.0475 42.7893H30.8008C29.4687 42.7893 28.3582 43.8087 28.2444 45.136Z" fill="#FFDD65"/>
<path fill-rule="evenodd" clip-rule="evenodd" d="M30.8934 44.7136C30.5631 44.7136 30.2867 44.9644 30.2549 45.2932L29.405 54.0763C29.3708 54.4289 29.0573 54.6871 28.7047 54.653C28.3521 54.6188 28.0939 54.3053 28.128 53.9527L28.978 45.1696C29.0735 44.1833 29.9024 43.4307 30.8934 43.4307H48.3305C48.6848 43.4307 48.972 43.7178 48.972 44.0721C48.972 44.4264 48.6848 44.7136 48.3305 44.7136H30.8934Z" fill="#FFF5A0"/>
<path fill-rule="evenodd" clip-rule="evenodd" d="M30.9083 44.7136C30.5747 44.7136 30.2967 44.9693 30.269 45.3017L30.0463 47.974C30.0169 48.3271 29.7069 48.5894 29.3538 48.56C29.0008 48.5306 28.7385 48.2205 28.7679 47.8675L28.9906 45.1952C29.0737 44.1978 29.9074 43.4307 30.9083 43.4307H33.5765C33.9308 43.4307 34.2179 43.7178 34.2179 44.0721C34.2179 44.4264 33.9308 44.7136 33.5765 44.7136H30.9083Z" fill="#FFFAED"/>
<path d="M46.4055 32.8472C46.4055 33.3786 45.6875 33.8093 44.8019 33.8093C43.9162 33.8093 43.1982 33.3786 43.1982 32.8472C43.1982 32.3158 43.9162 31.885 44.8019 31.885C45.6875 31.885 46.4055 32.3158 46.4055 32.8472Z" fill="#C48714"/>
<path d="M47.0472 28.6776C47.0472 29.0318 46.4729 29.319 45.7643 29.319C45.0558 29.319 44.4814 29.0318 44.4814 28.6776C44.4814 28.3233 45.0558 28.0361 45.7643 28.0361C46.4729 28.0361 47.0472 28.3233 47.0472 28.6776Z" fill="#C48714"/>
<path d="M45.1234 25.4703C45.1234 25.8246 44.549 26.1117 43.8405 26.1117C43.132 26.1117 42.5576 25.8246 42.5576 25.4703C42.5576 25.116 43.132 24.8289 43.8405 24.8289C44.549 24.8289 45.1234 25.116 45.1234 25.4703Z" fill="#C48714"/>
<path d="M45.7643 21.3009C45.7643 21.4781 45.4771 21.6217 45.1229 21.6217C44.7686 21.6217 44.4814 21.4781 44.4814 21.3009C44.4814 21.1238 44.7686 20.9802 45.1229 20.9802C45.4771 20.9802 45.7643 21.1238 45.7643 21.3009Z" fill="#C48714"/>
<path d="M47.0475 23.8666C47.0475 24.0438 46.7604 24.1873 46.4061 24.1873C46.0518 24.1873 45.7646 24.0438 45.7646 23.8666C45.7646 23.6895 46.0518 23.5459 46.4061 23.5459C46.7604 23.5459 47.0475 23.6895 47.0475 23.8666Z" fill="#C48714"/>
<path d="M43.8405 27.7155C43.8405 27.8926 43.5533 28.0362 43.1991 28.0362C42.8448 28.0362 42.5576 27.8926 42.5576 27.7155C42.5576 27.5384 42.8448 27.3948 43.1991 27.3948C43.5533 27.3948 43.8405 27.5384 43.8405 27.7155Z" fill="#C48714"/>
<path d="M47.6891 30.9228C47.6891 31.0999 47.402 31.2435 47.0477 31.2435C46.6934 31.2435 46.4062 31.0999 46.4062 30.9228C46.4062 30.7456 46.6934 30.6021 47.0477 30.6021C47.402 30.6021 47.6891 30.7456 47.6891 30.9228Z" fill="#C48714"/>
<path d="M44.4811 30.2814C44.4811 30.4585 44.1939 30.6021 43.8397 30.6021C43.4854 30.6021 43.1982 30.4585 43.1982 30.2814C43.1982 30.1043 43.4854 29.9607 43.8397 29.9607C44.1939 29.9607 44.4811 30.1043 44.4811 30.2814Z" fill="#C48714"/>
<path d="M48.972 35.7335C48.972 36.0877 48.3977 36.3749 47.6891 36.3749C46.9806 36.3749 46.4062 36.0877 46.4062 35.7335C46.4062 35.3792 46.9806 35.092 47.6891 35.092C48.3977 35.092 48.972 35.3792 48.972 35.7335Z" fill="#C48714"/>
<path d="M49.6138 55.2976C49.6138 55.829 49.183 56.2598 48.6516 56.2598C48.1202 56.2598 47.6895 55.829 47.6895 55.2976C47.6895 54.7662 48.1202 54.3354 48.6516 54.3354C49.183 54.3354 49.6138 54.7662 49.6138 55.2976Z" fill="#FFDC81"/>
<path d="M51.5378 53.6939C51.5378 54.0482 51.2506 54.3354 50.8963 54.3354C50.5421 54.3354 50.2549 54.0482 50.2549 53.6939C50.2549 53.3397 50.5421 53.0525 50.8963 53.0525C51.2506 53.0525 51.5378 53.3397 51.5378 53.6939Z" fill="#FFDC81"/>
<path d="M45.764 55.6183C45.764 55.9725 46.0512 56.2597 46.4054 56.2597C46.7597 56.2597 47.0469 55.9725 47.0469 55.6183C47.0469 55.264 46.7597 54.9768 46.4054 54.9768C46.0512 54.9768 45.764 55.264 45.764 55.6183Z" fill="#FFDC81"/>
<path d="M48.3304 52.411C48.3304 52.7652 48.6176 53.0524 48.9718 53.0524C49.3261 53.0524 49.6133 52.7652 49.6133 52.411C49.6133 52.0567 49.3261 51.7695 48.9718 51.7695C48.6176 51.7695 48.3304 52.0567 48.3304 52.411Z" fill="#FFDC81"/>
<path d="M45.7651 53.3731C45.7651 53.9044 46.1959 54.3352 46.7273 54.3352C47.2587 54.3352 47.6895 53.9044 47.6895 53.3731C47.6895 52.8417 47.2587 52.4109 46.7273 52.4109C46.1959 52.4109 45.7651 52.8417 45.7651 53.3731Z" fill="#FFDC81"/>
<path d="M42.5579 54.9769C42.5579 55.3312 42.8451 55.6183 43.1994 55.6183C43.5536 55.6183 43.8408 55.3312 43.8408 54.9769C43.8408 54.6226 43.5536 54.3354 43.1994 54.3354C42.8451 54.3354 42.5579 54.6226 42.5579 54.9769Z" fill="#FFDC81"/>
<path d="M50.2552 50.4867C50.2552 50.8409 50.5424 51.1281 50.8966 51.1281C51.2509 51.1281 51.5381 50.8409 51.5381 50.4867C51.5381 50.1324 51.2509 49.8452 50.8966 49.8452C50.5424 49.8452 50.2552 50.1324 50.2552 50.4867Z" fill="#FFDC81"/>
</svg>
