<svg width="39" height="48" viewBox="0 0 39 48" fill="none" xmlns="http://www.w3.org/2000/svg">
<path d="M28.25 6.70762C30.2843 6.70762 31.3015 6.70762 32.136 6.93251C34.4007 7.54279 36.1696 9.3218 36.7764 11.5994C37 12.4387 37 13.4617 37 15.5076V35.7476C37 39.444 37 41.2921 36.2847 42.704C35.6556 43.9458 34.6516 44.9555 33.4168 45.5883C32.013 46.3076 30.1753 46.3076 26.5 46.3076H12.5C8.82466 46.3076 6.98698 46.3076 5.58319 45.5883C4.34837 44.9555 3.34444 43.9458 2.71527 42.704C2 41.2921 2 39.444 2 35.7476V15.5076C2 13.4617 2 12.4387 2.22361 11.5994C2.83043 9.3218 4.59933 7.54279 6.864 6.93251C7.69853 6.70762 8.71569 6.70762 10.75 6.70762M14.25 11.1076H24.75C25.9751 11.1076 26.5877 11.1076 27.0556 10.8678C27.4672 10.6569 27.8019 10.3204 28.0116 9.9064C28.25 9.43579 28.25 8.81973 28.25 7.58762V5.82762C28.25 4.5955 28.25 3.97944 28.0116 3.50884C27.8019 3.09488 27.4672 2.75832 27.0556 2.5474C26.5877 2.30762 25.9751 2.30762 24.75 2.30762H14.25C13.0249 2.30762 12.4123 2.30762 11.9444 2.5474C11.5328 2.75832 11.1981 3.09488 10.9884 3.50884C10.75 3.97944 10.75 4.5955 10.75 5.82762V7.58762C10.75 8.81973 10.75 9.43579 10.9884 9.9064C11.1981 10.3204 11.5328 10.6569 11.9444 10.8678C12.4123 11.1076 13.0249 11.1076 14.25 11.1076Z" stroke="black" stroke-width="3" stroke-linecap="round" stroke-linejoin="round"/>
</svg>
