<svg xmlns="http://www.w3.org/2000/svg" width="4322.76" height="985.77" viewBox="0 0 4322.76 985.77" fill="black">
  <g id="Group_368" data-name="Group 368" transform="translate(7.47 -7072.7)">
    <g id="Layer_2" data-name="Layer 2" transform="translate(1057 6279)">
      <g id="Layer_1" data-name="Layer 1">
        <path id="Path_204" data-name="Path 204" d="M0,991.33q74.72,14.34,125.21,106.34v294.1q0,37.83-17,53.31a41.44,41.44,0,0,1-29.12,11.18v7.16H184.21v-7.16a41.44,41.44,0,0,1-29.12-11.18q-17-15.48-17-53.31V1124l141.45,315.3q24.46,60.48,56.16,98Q379,1589,450.09,1589v-7.17q-20.35-1.15-36.07-11.17-35.81-26.39-88.62-145.33l-7.22-15.76L443.91,1102v311.58q0,16.62-8.12,25.94a43.78,43.78,0,0,1-18.93,13q-10.83,3.73-19.07,3.73v7.16H536.4v-7.16q-8,0-18.94-3.73a43.651,43.651,0,0,1-19.06-13q-8.11-9.32-8.12-25.94V1117.74q0-16.62,8.12-25.94a43.73,43.73,0,0,1,19.06-13q10.95-3.73,18.94-3.73v-7.16H443.65l-133.2,324.47L187,1117.74q-30.66-69.36-78.32-100.32T0,984.17Z" fill="#fff"/>
        <path id="Path_205" data-name="Path 205" d="M628.67,1080.47q-24,14.47-36.46,37a96.68,96.68,0,0,0-12.41,47.17q0,24.6,8.45,45.14A157.93,157.93,0,0,0,610.63,1248a287.2,287.2,0,0,0,30.7,33.13q16.75,15.48,33.9,29.38,18.16,15.33,33.77,29.94a154.245,154.245,0,0,1,25.21,29.8,59.489,59.489,0,0,1,9.59,32.27q0,24.3-10.88,42.39a80.559,80.559,0,0,1-28.65,28.5q-17.79,10.41-30.19,11.28t-16,.87a97.758,97.758,0,0,1-35.56-7q-21.24-8.38-39-27.92t-28.65-51.36Q544,1367.52,544,1322.08v-9.26h-6.4v9.26q0,55.55,13.81,91.86t36.21,56q22.38,19.68,42.21,23.88t32.62,4.19a126.294,126.294,0,0,0,27.89-3.18,143,143,0,0,0,49.25-22,125.47,125.47,0,0,0,36.2-38.63A95.731,95.731,0,0,0,789.6,1384a81,81,0,0,0-12.15-42.83,198.549,198.549,0,0,0-31.08-38.48q-18.95-18.53-39.91-36.31t-39.53-35.88a193.112,193.112,0,0,1-30.45-37.62,78.5,78.5,0,0,1-11.89-41.51q0-26.05,12.91-43.42t28.79-23.29q15.86-5.92,28.65-5.93,29.67,0,50.66,22.28,15.6,16.79,21.23,47.75h7.42l-6.4-55a387.7,387.7,0,0,0-40.68-19.53,105.189,105.189,0,0,0-39.91-8.25q-34.53,0-58.58,14.47" fill="#fff"/>
        <path id="Path_206" data-name="Path 206" d="M2642,1074.92a313.3,313.3,0,0,0-72.1,24.63,244.435,244.435,0,0,0-62.81,43.57q-28,26.78-44.71,64.5t-16.69,87.57q0,60.94,24.71,106.93t68.41,71.48q43.7,25.49,101,25.49t101.28-25.49q43.95-25.49,68.67-71.48t24.71-106.93q0-61.21-29.17-105.22t-70.2-60.51q-41-16.51-79-16.52a248.884,248.884,0,0,0-41.79,3.7v10a158.232,158.232,0,0,1,31.85-3.41,117.692,117.692,0,0,1,55.55,13.38q38.46,20.22,61,62.51t22.54,96.11q0,53.82-18.21,97.11t-50.83,68.63q-32.62,25.35-76.44,25.34-43.56,0-76.31-25.34t-51-68.63q-18.21-43.29-18.21-97.11,0-45.56,14.27-81t37.84-61.37a221.274,221.274,0,0,1,52.35-42.72,241.93,241.93,0,0,1,58.73-24.92q29.94-8.12,56.18-8.11v-10a349.265,349.265,0,0,0-71.72,7.83" fill="#fff"/>
        <path id="Path_207" data-name="Path 207" d="M1766.22,1067.26v7.06q8.21,0,19,3.67a43.619,43.619,0,0,1,18.82,12.85q8.07,9.2,8.07,25.56v291.48q0,16.38-8.07,25.56a43.442,43.442,0,0,1-18.82,12.85q-10.74,3.68-19,3.68V1457a124.18,124.18,0,0,1,22-2q33.54,0,67.59,16.67,15.62,7.89,31,16.94,14.33,8.19,28.93,15.53,33,16.66,61.71,16.67,46.6,0,89.36-42.09l1.79-2-2.82-6.49q-18.18,9.89-31,14.12a100.847,100.847,0,0,1-30.47,4.52,154.731,154.731,0,0,1-49-7.77q-23.43-7.77-46.73-17.93a483.964,483.964,0,0,0-50.44-18.93V1116.4q0-16.38,8.06-25.56a43.54,43.54,0,0,1,19-12.85q10.89-3.67,18.82-3.67v-7.06Z" fill="#fff"/>
        <path id="Path_208" data-name="Path 208" d="M2019.07,1067.26v7.06q8.19,0,19,3.67a43.592,43.592,0,0,1,18.81,12.85q8.07,9.2,8.07,25.56v291.48q0,16.38-8.07,25.56a43.408,43.408,0,0,1-18.81,12.85q-10.76,3.68-19,3.68V1457a124.078,124.078,0,0,1,22-2q33.54,0,67.6,16.67,15.6,7.89,31,16.94,14.34,8.19,28.94,15.53,33,16.66,61.7,16.67,46.61,0,89.36-42.09l1.8-2-2.82-6.49q-18.2,9.89-31,14.12a101,101,0,0,1-30.47,4.52,154.789,154.789,0,0,1-49-7.77q-23.43-7.77-46.73-17.93a484.011,484.011,0,0,0-50.44-18.93V1116.4q0-16.38,8.07-25.56a43.481,43.481,0,0,1,19-12.85q10.88-3.67,18.81-3.67v-7.06Z" fill="#fff"/>
        <path id="Path_209" data-name="Path 209" d="M1155.63,1067.09c104.2,0,161.43,37.66,161.71,94-.28,47.67-40.41,76.34-82.37,85.42,79.12,8.91,127.43,52.76,127.36,108.45,0,63.49-62.43,105.66-173.18,105.66H1008.07l.12-5.62h9.4c25.85,0,46.85-15.58,47.59-35V1107.55c-.79-19.37-21.77-34.9-47.71-34.85h-9.28l-.12-5.59Zm30.9,373c76.28.27,120.13-32.34,120.06-89.19.07-84.25-95.81-98.31-167.72-98.2l-.17-5.29c45.32.12,122.61-10,122.9-82.29-.29-50.82-38.19-80.05-108.66-80h-39.29v355Z" fill="#fff"/>
        <path id="Path_210" data-name="Path 210" d="M1736.35,1067.26v5.56h-9.26c-16,0-29,10.94-30,26.26V1319c0,87.2-61.24,145.33-153.1,145.33-94.51,0-157.52-57.75-157.52-144.36v-219.6c-.31-16-13.62-27.53-30-27.53h-9.26v-5.56h115.37v5.56h-9.26c-16.12,0-29.25,11.14-30,26.7V1311.8c0,81,48.24,135,120.61,135,75.87,0,126.46-51.14,126.59-127.85V1099.59c-.71-15.59-13.86-26.77-30-26.77h-9.26v-5.56Z" fill="#fff"/>
        <path id="Path_211" data-name="Path 211" d="M2416.25,1462.78H2276.16l.1-5.65h8.1c22.42,0,40.6-15.87,41-35.57V1107.77c-.55-19.59-18.68-35.33-41-35.33h-8.1l-.11-5.66h140.08l-.11,5.66H2408c-22.27,0-40.37,15.68-41,35.22v313.9c.42,19.7,18.6,35.57,41,35.57h8.1Z" fill="#fff"/>
        <path id="Path_212" data-name="Path 212" d="M3258.29,1075.21l-.08,5.43h-10.33c-18.72,0-33.94,14.44-34.53,32.47v280.66c0,35,5.1,69.31,5.1,69.31h-5.07l-305.13-316v270.47c.58,18,15.8,32.5,34.52,32.5h10.33l.08,5.43H2837.93l.09-5.43h10.33c18.87,0,34.18-14.67,34.54-32.9V1134.94a459.44,459.44,0,0,0-5.15-67.86h5.51L3187.94,1383V1113.6c-.35-18.24-15.66-32.93-34.54-32.93h-10.32l-.08-5.43Z" fill="#fff"/>
      </g>
    </g>
    <g id="Group_367" data-name="Group 367" transform="translate(-2199 793.7)">
      <path id="Path_213" data-name="Path 213" d="M1763.89,326.08c-1.15.22-2.29.46-3.44.66-9.83,1.72-15.61,8.1-18.35,17.12s-1.48,17.86,6,24.76a89.559,89.559,0,0,1,12,13.1c5.53,7.61,10.63,15.44,12.49,24.62.27,1.33.74,2.47,2.23,1,8.3-8.29,18.8-12.43,29.74-15.68,4.19-1.25,8.48-2.18,12.72-3.3,9.77-2.57,15.69-9,18.5-18.43,0-2.21.07-4.31.11-6.52a50.75,50.75,0,0,0-2.37-8.19c-3.67-8.64-10.07-14.06-19.44-15-9.2-.91-17.1,2.16-22.86,9.78-.18.23-.34.47-.54.68s-.25.09-.58.19c-.36-1.72,0-3.49-.44-5.17a23.859,23.859,0,0,0-11.26-15.26,29.17,29.17,0,0,0-14.2-4.37h-.28" transform="translate(1057 6279)" fill="#fff"/>
      <path id="Path_214" data-name="Path 214" d="M1723.61,501.85c-10.24,9.16-15.29,20.45-13.56,34.38a2.775,2.775,0,0,1-.06.67c-1-.06-1.33-.89-1.8-1.47-8.44-10.34-19.22-13.64-32.11-10.86-17.5,3.76-28,21-25.84,38.16,1.52,12,6.82,21.87,16.45,29.4,5.7,4.45,12.38,5.2,19.2,5.77,16.28,1.37,31.79,5.45,46.17,13.38a52.538,52.538,0,0,1,9.6,6.91c.54.49,1.12,1,1.94.69s.61-1,.63-1.51c.47-12.23,4.32-23.51,9.56-34.4a188.825,188.825,0,0,1,13.92-23.85c2.87-4.24,5.78-8.49,7.46-13.37,8.31-24.17-5-45-28.67-50.25-1-.22-2-.3-3.08-.43L1741,495c-6.46.58-12.48,2.47-17.36,6.83" transform="translate(1057 6279)" fill="#fff"/>
      <path id="Path_215" data-name="Path 215" d="M1310.09,266.4c-6.2,1.27-11.9,3.42-16.23,8.37-8.52,9.73-10.7,20.65-6.44,32.84a23.141,23.141,0,0,0,6.76,9.32,118.724,118.724,0,0,1,22.27,27.21,56.329,56.329,0,0,1,7.14,17.82c.4,2,1.13,2.29,2.39,1,9-9.08,20.24-13.81,32-17.68a132.857,132.857,0,0,1,16.62-4.5c13.06-2.52,21.18-10.09,24.91-22.23,0-3.11.07-6.05.11-9.15a56.612,56.612,0,0,0-3.15-9.78c-4.87-10.22-12.91-16.3-24.22-16.9-10.7-.56-19.94,3.07-26.5,12.09-.22.29-.41.6-.65.88-.07.09-.24.09-.51.18-.39-2,0-4.07-.47-6.06a28.63,28.63,0,0,0-15.06-19.45,30.434,30.434,0,0,0-12.39-4Z" transform="translate(1057 6279)" fill="#fff"/>
      <path id="Path_216" data-name="Path 216" d="M2090.7,343.87c-6.21,10.69-12.81,21.14-19.61,31.46a1045.071,1045.071,0,0,1-63.36,86q-29.65,36.3-62.27,69.94-28.61,29.43-59.46,56.5c-16,14-32.34,27.7-49.43,40.38a613,613,0,0,1-80.92,50.42,701.07,701.07,0,0,1-150.49,58c-21.74,5.63-43.66,10.46-66,13.21-17.32,2.12-34.68,4-52.12,5.1-15.75,1-31.52,1.77-47.3,2-20,.32-40.07.38-60.09-.72a293.806,293.806,0,0,1-33.11-3.38c-23.24-3.92-46.11-9.43-68.88-15.4q-33.74-8.83-67.06-19.15c-2.39-.74-2.5-.66-2.51,1.78,0,4,.09,7.9-.06,11.85a3.41,3.41,0,0,0,2.43,3.41c7.6,2.21,15.12,4.66,22.73,6.8a912.524,912.524,0,0,0,98.86,21.79c14.93,2.46,29.89,4.62,44.91,6.35,10.81,1.25,21.61,2.74,32.53,2.72h12.27c11,0,22.09.08,33.13-.34,11.25-.44,22.48-1,33.71-1.78,15.6-1.1,31.14-2.75,46.64-4.81a722.841,722.841,0,0,0,86-16.79,682,682,0,0,0,125.44-45.89,678.176,678.176,0,0,0,94.71-55.53,718.91,718.91,0,0,0,106.5-91.49,764.65,764.65,0,0,0,68.6-82.35c27.42-38.08,51.59-78.08,71.11-120.81a103.927,103.927,0,0,0,4.56-10.91,3.08,3.08,0,0,0-1.51,1.61" transform="translate(1057 6279)" fill="#fff"/>
      <path id="Path_217" data-name="Path 217" d="M1579.12,304.14l-3.22.54c-10.44,1.75-18.9,7.19-26.4,14.31-10.86,10.3-18.78,22.76-25.77,35.83-11.46,21.43-20,44.06-27.23,67.2-3.73,11.93-6.9,24-10.87,35.89q-7.79,23.19-14.18,46.8c-8.12,30-15,60.3-22.83,90.36-4.14,15.85-8.27,31.72-15.09,46.74a7.121,7.121,0,0,1-1.33,1.8c-.54.59-.9,1.9-2,1.6-.86-.23-.9-1.22-1.09-2a11.316,11.316,0,0,1-.39-2.65c.1-13.42,2.09-26.65,4.09-39.86,4.53-29.91,10.14-59.64,16-89.33,3-15.13,6.18-30.22,8.88-45.4a412.988,412.988,0,0,0,6.53-66.18,171.882,171.882,0,0,0-2.83-34.86c-1.91-10.12-4.87-19.92-11.68-27.9s-15.31-12-25.91-9.68c-7.47,1.63-13.29,6.26-18.66,11.44-8.18,7.87-14.62,17.11-20.54,26.71-13.18,21.36-23.57,44.1-33.11,67.25-17.67,42.91-32.1,87-45.81,131.25-4.95,16-9.55,32.1-14.89,48a8.871,8.871,0,0,1-1.54,3.29,10.919,10.919,0,0,1-.38-4.81c.59-7.79,1.45-15.56,2.47-23.31,2.31-17.46,5-34.86,7.81-52.24,1.08-6.71,2.41-13.39,3.13-20.14.79-7.33,1-14.72,1.49-22.08,1.11-15.31,1.65-30.65,2-46,.29-12.86,0-25.72-.63-38.59a75.6,75.6,0,0,0-17.66-45.57c-3.32-4-6.76-8.1-12.11-9.79-9.3-2.92-17.77-.8-25.75,4.14-8.92,5.52-15.22,13.6-21,22.12-11,16.22-20,33.5-28.54,51.1-8.59,17.78-16.49,35.87-24,54.15-.7,1.74-1.07,3,1.91,4.4a74.223,74.223,0,0,1,20.59,14.09c4.61,4.56,5.43,4.62,6,2,.91-4,2-8,3-11.92,7.91-32.57,17.26-64.71,29.09-96.09,3.74-9.93,7.58-19.82,13.52-28.71a25.889,25.889,0,0,1,6.13-6.82,7.55,7.55,0,0,1,10.93,2.19,22.5,22.5,0,0,1,2,4.57c2.52,7.49,3.29,15.28,3.8,23.08,1.1,16.87.74,33.77,0,50.64-.66,14.53-1.58,29-2.91,43.52-1,10.48-1.74,21-2.79,31.43-1.32,13.16-2.78,26.3-4.27,39.43-1.45,12.7-2.94,25.4-4.55,38.08q-2.88,22.72-6,45.41c-2.33,16.86-4.79,33.7-7.23,50.55-1.21,8.31-2.5,16.61-3.78,24.92-.21,1.31,0,2.07,1.54,2.16,6.58.4,13.13,1.37,19.76,1.2a90.238,90.238,0,0,1,20.19,2c2.81.58,3.84.14,4.4-2,2.09-7.91,4.26-15.81,6.45-23.7,9.43-33.88,18.8-67.77,28.34-101.62,8-28.29,15.76-56.64,24.91-84.58,8.88-27.1,18-54.11,27.91-80.87,6-16.34,12.36-32.55,20.51-48,3.91-7.38,8.25-14.5,13.9-20.72,4.16-4.57,8.87-8.31,15.23-9.39a5.57,5.57,0,0,1,5.48,2.26,15.3,15.3,0,0,1,2,4.14,53.2,53.2,0,0,1,2.09,14.28,285.582,285.582,0,0,1-2.07,40.91c-2.09,19.11-5.19,38.06-8.67,57-3.56,19.35-8.56,38.37-12.76,57.57-8.29,37.93-15.85,76-18.22,114.84-.79,12.86-1,25.71,1,38.49,1,6.75,2.5,13.37,6.53,19.13,3.19,4.56,10.42,7.1,16,4.3a31.409,31.409,0,0,0,5.61-3.4A60.247,60.247,0,0,0,1433,686.7c8.69-12.14,15.18-25.49,21.09-39.13,11.91-27.49,21.15-55.93,29.46-84.68,11.28-39.06,20.88-78.57,31.24-117.87,5.56-21.15,11.34-42.24,19.25-62.66,4.54-11.76,9.65-23.25,17.44-33.31,3.76-4.86,8-9.26,13.85-11.49,9.91-3.81,14.21-1.73,17.15,8.16a2.366,2.366,0,0,0,.09.43,70.251,70.251,0,0,1,2.12,16.7c.21,7.38,0,14.76-.29,22.15-.43,9.35-1.16,18.67-2,28-1.1,12.59-2.44,25.16-3.79,37.72-1.59,14.67-3.21,29.33-5,44q-2.83,23.51-6,47-3.72,28.125-7.64,56.24-4.38,30.81-9.1,61.58c-3.06,20-6.27,40-9.47,60-1.73,10.74-3.59,21.47-5.37,32.21-.48,2.88-.18,3.13,2.76,2.76,4.11-.52,8.25-.84,12.35-1.44,5.73-.83,11.51-1.18,17.27-1.71,1.92-.18,2.62-1,2.84-2.85q3-24.24,6.13-48.48c2.54-20,5-40,7.62-60q3.81-29.45,7.76-58.88c3.09-23.24,6.26-46.48,9.34-69.73,3-23,7.36-45.73,10.17-68.72,1.66-13.72,2.93-27.47,3.27-41.28.24-9.5.31-19-.28-28.51a185.632,185.632,0,0,0-5-34.65c-2.49-9.76-5.88-19.15-12.07-27.3-2.6-3.41-5.71-5.81-10.15-6.14-1.23-.09-2.44-.37-3.66-.56Z" transform="translate(1057 6279)" fill="#fff"/>
      <path id="Path_218" data-name="Path 218" d="M1808,268.42c-33,9.51-62,26.2-88,48.5-11.5,9.87-22,20.51-29.16,34.13-6,11.32-8.93,23.08-7.51,35.87,1.35,12.06,5.94,22.9,12.8,32.73,18.12,25.93,42.94,43.81,70.87,57.62,15.64,7.74,30.94,15.91,44.74,26.63,10.7,8.31,20.45,17.55,27.11,29.54,10.17,18.28,8.65,35.86-3.67,52.57a98.794,98.794,0,0,1-19.84,19.76c-17.25,13.19-37,20.73-58.08,24.91-22.94,4.53-46.07,4.72-69.24,2.52a375.466,375.466,0,0,1-68.1-13.12c-7.07-2-14-4.41-21.13-6.66-.18.53-.38,1.07-.54,1.62-2.48,8.93-4.93,17.88-7.45,26.8-1.16,4.1-2.48,8.15-3.71,12.23l.18.29a527.879,527.879,0,0,0,58.15,6.46c32.79,1.91,65.49,1.29,98-3.86a267.889,267.889,0,0,0,53.72-14.11c17.49-6.66,32.86-16.79,47.4-28.34,11-8.72,21.36-18.09,29-30,7-10.79,12.31-22.33,12.44-35.53.18-17.64-6.45-32.8-17.74-46a95,95,0,0,0-23.47-19.31c-16.9-10.18-34-20-51.11-29.82-16.11-9.23-32.24-18.44-46.78-30.1-10.27-8.24-19.58-17.38-26.13-29-3.73-6.63-6.63-13.64-7.06-21.25a35.57,35.57,0,0,1,7.41-23.57c10.93-14.8,24.65-26.66,40-36.47a218.059,218.059,0,0,1,86.9-32.02c9.14-1.34,18.36-1.68,27.49.34,12.24,2.7,19.08,11.18,18.07,22.88-.7,8-4,15.2-8.63,21.77-9.66,13.83-21.48,25.66-34.12,36.71-3.73,3.26-7.57,6.39-11.5,9.71,9.1,4.26,18,8.4,26.92,12.66a2.64,2.64,0,0,0,3.6-.6c6.61-6.93,13.52-13.58,19.88-20.73,12.16-13.66,21.9-28.88,28-46.2,7.31-20.59,2.16-39-14.35-51.49a13.072,13.072,0,0,0-4.09-2.08c-10-3-20.37-3.84-30.75-4.08-1.46,0-2.91-.05-4.36-.05a202,202,0,0,0-56.25,8.14" transform="translate(1057 6279)" fill="#fff"/>
      <path id="Path_219" data-name="Path 219" d="M1614.69,947.58A457.5,457.5,0,0,1,1225.06,705a449.205,449.205,0,0,1-47.88-145.57,430.828,430.828,0,0,1-4.82-67.33c.18-72.64,16.33-141.49,49.38-206.25a449.17,449.17,0,0,1,69.84-100.1,455.3,455.3,0,0,1,176-119.2,443.7,443.7,0,0,1,93.63-24.31c15.77-2.3,31.62-3.64,47.54-4.55a414,414,0,0,1,51.29.46,454.781,454.781,0,0,1,189.28,55A448.569,448.569,0,0,1,1954.22,172q97.06,98.17,124.2,233.65a441.238,441.238,0,0,1,7.62,63.53,451.571,451.571,0,0,1-23.86,171A444.381,444.381,0,0,1,1974.74,791q-81.63,92.9-198.64,132.84a445.992,445.992,0,0,1-84,19.64,463.949,463.949,0,0,1-62.59,4.34q-7.41,0-14.83-.26M1604.14,0c-5.17,1.18-10.47.88-15.7,1.3A494.367,494.367,0,0,0,1196.54,254a484.566,484.566,0,0,0-53.87,149.56,514.265,514.265,0,0,0-7.66,68.37,465.881,465.881,0,0,0,.44,50.42,494.058,494.058,0,0,0,463.96,462.04c4.87.27,9.83.17,14.63,1.38l31.62-.12c4.49-1.09,9.12-1,13.67-1.25a482.724,482.724,0,0,0,64.31-8,494.081,494.081,0,0,0,356.24-279.89,483.309,483.309,0,0,0,36.58-116c3.56-19.87,6.49-39.82,6.77-60.07a39.77,39.77,0,0,1,.53-4.32v-47.4a39.768,39.768,0,0,1-.53-4.32c-.23-18.78-2.88-37.29-6-55.74A482.794,482.794,0,0,0,2066,260.06,495.47,495.47,0,0,0,1718.5,7.6,446.334,446.334,0,0,0,1658.05.53a22.192,22.192,0,0,1-3-.53Z" transform="translate(1057 6279)" fill="#fff"/>
    </g>
  </g>
</svg>
