<svg xmlns="http://www.w3.org/2000/svg" xmlns:xlink="http://www.w3.org/1999/xlink" viewBox="0 0 748.42 209.63"><defs><style>.cls-1,.cls-2{fill:#fff;}.cls-2{fill-rule:evenodd;}.cls-3{clip-path:url(#clip-path);}.cls-4{clip-path:url(#clip-path-2);}.cls-5{clip-path:url(#clip-path-3);}.cls-6{clip-path:url(#clip-path-4);}.cls-7{clip-path:url(#clip-path-5);}.cls-8{clip-path:url(#clip-path-6);}</style><clipPath id="clip-path" transform="translate(0 24.42)"><path id="SVGID" class="cls-1" d="M183.79,17.76q17.64,3,29.55,22.56v62.39q0,8-4,11.31a10.43,10.43,0,0,1-6.87,2.37v1.52h24.81v-1.52A10.39,10.39,0,0,1,220.4,114q-4-3.28-4-11.31V45.91l33.39,66.89q5.78,12.83,13.25,20.8,10.22,10.93,27,10.94V143a18.7,18.7,0,0,1-8.51-2.37q-8.46-5.6-20.92-30.83l-1.7-3.34,29.67-65.25v66.1a7.6,7.6,0,0,1-1.91,5.5,10.49,10.49,0,0,1-4.47,2.77,15.81,15.81,0,0,1-4.5.79v1.52h32.71v-1.52a16,16,0,0,1-4.47-.79,10.47,10.47,0,0,1-4.5-2.77,7.6,7.6,0,0,1-1.91-5.5V44.57a7.6,7.6,0,0,1,1.91-5.5,10.47,10.47,0,0,1,4.5-2.77,16,16,0,0,1,4.47-.79V34H288.5l-31.44,68.84L227.94,44.57q-7.24-14.72-18.49-21.28a53.56,53.56,0,0,0-25.66-7Z"/></clipPath><clipPath id="clip-path-2" transform="translate(0 24.42)"><path id="SVGID-2" data-name="SVGID" class="cls-1" d="M325.11,35.39a22.21,22.21,0,0,0-8.67,7.78,18.59,18.59,0,0,0-2.95,9.92,22.19,22.19,0,0,0,2,9.48,32.67,32.67,0,0,0,5.32,8,64.36,64.36,0,0,0,7.3,7q4,3.25,8.05,6.17,4.32,3.22,8,6.3a33.48,33.48,0,0,1,6,6.26,11.47,11.47,0,0,1,2.28,6.78,15.46,15.46,0,0,1-2.58,8.91,18.36,18.36,0,0,1-6.81,6,18.86,18.86,0,0,1-7.18,2.37c-2,.12-3.23.18-3.8.18a25.73,25.73,0,0,1-8.45-1.46,25.18,25.18,0,0,1-9.28-5.86,29.94,29.94,0,0,1-6.81-10.8A45.22,45.22,0,0,1,305,86.17v-2h-1.52v2q0,11.67,3.28,19.3a29,29,0,0,0,8.61,11.77,24,24,0,0,0,10,5,44.58,44.58,0,0,0,7.75.88,34.2,34.2,0,0,0,6.63-.67,36.21,36.21,0,0,0,11.71-4.62,28.13,28.13,0,0,0,8.6-8.12,18.39,18.39,0,0,0,3.29-10.55,15.63,15.63,0,0,0-2.89-9,43.38,43.38,0,0,0-7.39-8.09q-4.5-3.89-9.49-7.63t-9.39-7.54A42.2,42.2,0,0,1,327,59a15.18,15.18,0,0,1-2.83-8.73,13.66,13.66,0,0,1,3.08-9.12,15.2,15.2,0,0,1,6.84-4.9A21.9,21.9,0,0,1,340.86,35a17,17,0,0,1,12,4.68q3.71,3.52,5,10h1.77l-1.52-11.55a100.33,100.33,0,0,0-9.67-4.11A28,28,0,0,0,339,32.35a29.28,29.28,0,0,0-13.92,3"/></clipPath><clipPath id="clip-path-3" transform="translate(0 24.42)"><path id="SVGID-3" data-name="SVGID" class="cls-1" d="M415.32,37.82A40.71,40.71,0,0,0,399,53.09q-5.89,9.78-5.9,22.86A43.47,43.47,0,0,0,399,98.78a40.43,40.43,0,0,0,16.33,15.27q10.43,5.45,24.11,5.44,15.56,0,25.78-8.39l8.27,6.81H475V84a7.63,7.63,0,0,1,1.91-5.51,10.45,10.45,0,0,1,4.5-2.76,15.61,15.61,0,0,1,4.47-.79V73.4H453.17v1.52a15.35,15.35,0,0,1,4.5.79,10.47,10.47,0,0,1,4.47,2.76A7.63,7.63,0,0,1,464.05,84v16.78a10.71,10.71,0,0,1-2.55,7.15,20.63,20.63,0,0,1-6.42,5,33.91,33.91,0,0,1-8.05,2.92,34.45,34.45,0,0,1-7.48.94,31.66,31.66,0,0,1-15-3.43,32.77,32.77,0,0,1-10.92-9.22A41.34,41.34,0,0,1,407,91a51,51,0,0,1-2.25-15,49.92,49.92,0,0,1,2.19-14.53,44.38,44.38,0,0,1,6.45-13.17,33,33,0,0,1,10.52-9.51,28.38,28.38,0,0,1,14.41-3.59,29,29,0,0,1,11.55,2.46,33.77,33.77,0,0,1,10.77,7.66,48.86,48.86,0,0,1,8.87,13.35H471L466.06,34h-1.52v.43a4.31,4.31,0,0,1-.37,1.76,1.7,1.7,0,0,1-1.76,1.16,7,7,0,0,1-2.19-.4c-.81-.26-1.74-.6-2.79-1a74.52,74.52,0,0,0-7.3-2.37,40.56,40.56,0,0,0-10.7-1.22q-13.69,0-24.11,5.47"/></clipPath><clipPath id="clip-path-4" transform="translate(0 24.42)"><path id="SVGID-4" data-name="SVGID" class="cls-1" d="M532.73,28.91a81.24,81.24,0,0,0-17.2,5.26,59,59,0,0,0-15,9.31,43,43,0,0,0-10.68,13.77,41.78,41.78,0,0,0-4,18.7,43.47,43.47,0,0,0,5.9,22.83,40.43,40.43,0,0,0,16.33,15.27q10.42,5.45,24.11,5.44t24.17-5.44a40.47,40.47,0,0,0,16.39-15.27A43.47,43.47,0,0,0,578.68,76q0-13.08-7-22.47A35.86,35.86,0,0,0,555,40.56,55.58,55.58,0,0,0,536.11,37a66.83,66.83,0,0,0-10,.79V40a42.42,42.42,0,0,1,7.6-.73A30.68,30.68,0,0,1,547,42.08a33,33,0,0,1,14.57,13.35A39.28,39.28,0,0,1,566.94,76a48.16,48.16,0,0,1-4.35,20.74,36.19,36.19,0,0,1-12.13,14.65,33.4,33.4,0,0,1-36.45,0,36.12,36.12,0,0,1-12.17-14.65A48.15,48.15,0,0,1,497.5,76a41.76,41.76,0,0,1,3.4-17.3,42.76,42.76,0,0,1,9-13.1,52.44,52.44,0,0,1,12.5-9.13,61.89,61.89,0,0,1,14-5.32,57.39,57.39,0,0,1,13.41-1.73V27.24a93.26,93.26,0,0,0-17.12,1.67"/></clipPath><clipPath id="clip-path-5" transform="translate(0 24.42)"><path id="SVGID-5" data-name="SVGID" class="cls-1" d="M578.67,34v1.52a15.69,15.69,0,0,1,4.5.79,10.37,10.37,0,0,1,4.47,2.77,7.56,7.56,0,0,1,1.92,5.5v62.76a7.56,7.56,0,0,1-1.92,5.5,10.37,10.37,0,0,1-4.47,2.77,15.69,15.69,0,0,1-4.5.79v1.52a31.9,31.9,0,0,1,5.23-.43A39.4,39.4,0,0,1,600,121.07q3.7,1.7,7.35,3.65c2.27,1.17,4.57,2.29,6.88,3.34a35.43,35.43,0,0,0,14.65,3.59q11.07,0,21.22-9.06l.43-.43-.67-1.39a50.48,50.48,0,0,1-7.36,3,26.53,26.53,0,0,1-7.23,1,40.41,40.41,0,0,1-11.65-1.67q-5.57-1.68-11.1-3.86a123,123,0,0,0-12-4.08V44.57a7.56,7.56,0,0,1,1.92-5.5,10.47,10.47,0,0,1,4.5-2.77,15.85,15.85,0,0,1,4.47-.79V34Z"/></clipPath><clipPath id="clip-path-6" transform="translate(0 24.42)"><path id="SVGID-6" data-name="SVGID" class="cls-1" d="M661.74,35.52H673a33.81,33.81,0,0,1,18.75,5.16A34.85,34.85,0,0,1,704.2,54.93a46.89,46.89,0,0,1,4.46,20.9,46.92,46.92,0,0,1-4.46,20.9A34.85,34.85,0,0,1,691.73,111,33.89,33.89,0,0,1,673,116.13H661.74ZM639.3,32.71v1.57a16,16,0,0,1,4.63.81,10.72,10.72,0,0,1,4.59,2.84,7.79,7.79,0,0,1,2,5.65v64.49a7.81,7.81,0,0,1-2,5.66,10.72,10.72,0,0,1-4.59,2.84,16,16,0,0,1-4.63.81v1.56H673q14.07,0,24.84-5.18a39.65,39.65,0,0,0,16.84-14.88q6.06-9.67,6.06-23t-6.06-23.09A39.69,39.69,0,0,0,697.82,37.9q-10.77-5.19-24.9-5.19Z"/></clipPath></defs><g id="Layer_2" data-name="Layer 2"><g id="Layer_1-2" data-name="Layer 1"><path class="cls-1" d="M83.37,160.76l-5.16,0a12.82,12.82,0,0,0-2.39-.23,76.71,76.71,0,0,1-8.8-1,79.31,79.31,0,0,1-22.3-7.26,80.88,80.88,0,0,1-40.39-46A79.38,79.38,0,0,1,.15,85.19,75.14,75.14,0,0,1,.08,77,83.24,83.24,0,0,1,1.33,65.82a79,79,0,0,1,8.78-24.4,80.65,80.65,0,0,1,47-38A79.49,79.49,0,0,1,74,.21,18.29,18.29,0,0,0,76.59,0H84.9a3.86,3.86,0,0,0,.49.09,72.82,72.82,0,0,1,9.86,1.15,79.61,79.61,0,0,1,20,6.43,80.8,80.8,0,0,1,36.65,34.75,78.57,78.57,0,0,1,8.35,24.23,57.84,57.84,0,0,1,1,9.09,5.71,5.71,0,0,0,.08.71v7.73c0,.23-.08.47-.09.7a59.77,59.77,0,0,1-1.1,9.8,78.58,78.58,0,0,1-6,18.92,80.6,80.6,0,0,1-58.1,45.65,78.49,78.49,0,0,1-10.49,1.3A11.84,11.84,0,0,0,83.37,160.76ZM6.17,80.26a70.62,70.62,0,0,0,.79,11A74.49,74.49,0,0,0,55.9,150.37a74.87,74.87,0,0,0,35,3.51,72.32,72.32,0,0,0,13.7-3.2A74.46,74.46,0,0,0,137,129a72.48,72.48,0,0,0,14.26-24.6,73.8,73.8,0,0,0,3.89-27.89A71.82,71.82,0,0,0,154,66.16,74.49,74.49,0,0,0,85.71,6.22a68.57,68.57,0,0,0-8.36-.07c-2.6.15-5.18.37-7.75.74a71.78,71.78,0,0,0-15.27,4A75,75,0,0,0,14.22,46.62,73.37,73.37,0,0,0,6.17,80.26Z" transform="translate(0 24.42)"/><path class="cls-1" d="M73.81,106.68c.2-.67.41-1.33.6-2,.41-1.45.81-2.91,1.22-4.37,0-.09.06-.18.08-.26,1.16.36,2.3.75,3.45,1.08a60.07,60.07,0,0,0,11.11,2.14,38.86,38.86,0,0,0,11.29-.41A22.37,22.37,0,0,0,111,98.8a16.21,16.21,0,0,0,3.24-3.22,7.39,7.39,0,0,0,.6-8.58,16.25,16.25,0,0,0-4.42-4.81,42,42,0,0,0-7.3-4.35,29.62,29.62,0,0,1-11.56-9.4,11.45,11.45,0,0,1-2.09-5.33,10,10,0,0,1,1.23-5.85,19.28,19.28,0,0,1,4.75-5.57,38,38,0,0,1,14.36-7.91,32.71,32.71,0,0,1,9.88-1.32,18.91,18.91,0,0,1,5,.66,2.35,2.35,0,0,1,.67.34,7,7,0,0,1,2.34,8.4,23,23,0,0,1-4.58,7.54c-1,1.16-2.16,2.25-3.24,3.38a.44.44,0,0,1-.59.1c-1.45-.7-2.91-1.37-4.39-2.07.64-.54,1.27-1.05,1.88-1.58a33.59,33.59,0,0,0,5.56-6,7.34,7.34,0,0,0,1.41-3.55,3.38,3.38,0,0,0-3-3.73,12.27,12.27,0,0,0-4.48-.06,35.74,35.74,0,0,0-14.18,5.23,24.17,24.17,0,0,0-6.52,5.95,5.81,5.81,0,0,0-1.21,3.85,8.11,8.11,0,0,0,1.15,3.46,16.5,16.5,0,0,0,4.27,4.73A58.64,58.64,0,0,0,107.51,74c2.79,1.6,5.57,3.2,8.33,4.86A15.67,15.67,0,0,1,119.67,82a11.14,11.14,0,0,1,2.89,7.5,10.81,10.81,0,0,1-2,5.8,21.11,21.11,0,0,1-4.73,4.89,29.42,29.42,0,0,1-7.73,4.62,43.65,43.65,0,0,1-8.76,2.3,74.4,74.4,0,0,1-16,.63,88.64,88.64,0,0,1-9.48-1Z" transform="translate(0 24.42)"/><path class="cls-1" d="M73.37,49.6c.2,0,.4.08.6.1a2.21,2.21,0,0,1,1.65,1,12,12,0,0,1,2,4.45,29.84,29.84,0,0,1,.82,5.65c.1,1.55.09,3.1,0,4.65-.06,2.25-.26,4.5-.54,6.73-.45,3.75-1.16,7.47-1.65,11.21L74.74,94.76c-.42,3.21-.85,6.41-1.26,9.61s-.83,6.52-1.25,9.79c-.33,2.63-.67,5.27-1,7.9a.44.44,0,0,1-.46.47c-.94.08-1.88.14-2.82.28-.66.09-1.34.15-2,.23-.48.06-.53,0-.45-.45.29-1.75.59-3.5.87-5.25q.8-4.89,1.55-9.78c.51-3.35,1-6.7,1.48-10,.44-3.05.84-6.11,1.25-9.17.34-2.55.67-5.1,1-7.66q.44-3.59.82-7.17c.22-2.05.44-4.1.62-6.15.13-1.52.25-3,.32-4.57,0-1.2.08-2.41,0-3.61a11.33,11.33,0,0,0-.35-2.72.64.64,0,0,0,0-.07c-.47-1.62-1.18-2-2.79-1.34A5.43,5.43,0,0,0,68,56.93a21.34,21.34,0,0,0-2.85,5.43A95.69,95.69,0,0,0,62,72.58C60.33,79,58.76,85.44,56.92,91.81a115.15,115.15,0,0,1-4.81,13.81A33.85,33.85,0,0,1,48.67,112a9.39,9.39,0,0,1-1.86,2,6,6,0,0,1-.91.56,2.18,2.18,0,0,1-2.62-.71,7.25,7.25,0,0,1-1.06-3.12,29.22,29.22,0,0,1-.16-6.27,123.36,123.36,0,0,1,3-18.73c.69-3.14,1.5-6.24,2.09-9.39s1.07-6.18,1.41-9.3a48,48,0,0,0,.34-6.67,8.82,8.82,0,0,0-.35-2.33,2.17,2.17,0,0,0-.32-.67.88.88,0,0,0-.89-.37,4.24,4.24,0,0,0-2.48,1.53,16.67,16.67,0,0,0-2.27,3.38,64.09,64.09,0,0,0-3.35,7.82c-1.6,4.37-3.1,8.77-4.55,13.19s-2.76,9.19-4.06,13.8Q28.26,105,26,113.31c-.36,1.29-.71,2.58-1.06,3.87-.09.34-.25.41-.71.32a15.27,15.27,0,0,0-3.3-.33c-1.08,0-2.14-.13-3.22-.19-.25,0-.28-.14-.25-.35.21-1.36.42-2.71.62-4.07.4-2.75.8-5.49,1.18-8.24.34-2.47.66-4.94,1-7.41.26-2.07.5-4.14.74-6.21s.48-4.28.69-6.43c.18-1.71.3-3.42.46-5.13.22-2.36.37-4.73.47-7.09a73.42,73.42,0,0,0,0-8.26A14.57,14.57,0,0,0,22,60a3.79,3.79,0,0,0-.33-.74,1.24,1.24,0,0,0-1.79-.36,4.24,4.24,0,0,0-1,1.11,23,23,0,0,0-2.2,4.68A135.5,135.5,0,0,0,11.9,80.39c-.15.64-.33,1.29-.48,1.94-.09.42-.23.41-1-.33a12.16,12.16,0,0,0-3.36-2.3c-.48-.23-.42-.43-.31-.72,1.22-3,2.51-5.93,3.91-8.83a65.91,65.91,0,0,1,4.66-8.33,11.67,11.67,0,0,1,3.42-3.61,4.85,4.85,0,0,1,4.2-.67,4.28,4.28,0,0,1,2,1.59,12.33,12.33,0,0,1,2.88,7.43c.1,2.1.15,4.2.11,6.3-.06,2.5-.15,5-.33,7.5-.09,1.2-.11,2.4-.24,3.6s-.34,2.19-.51,3.28c-.46,2.84-.9,5.68-1.28,8.52-.16,1.27-.3,2.54-.4,3.81a1.78,1.78,0,0,0,.06.78,1.46,1.46,0,0,0,.25-.54c.87-2.58,1.62-5.21,2.43-7.82,2.24-7.22,4.59-14.41,7.47-21.41a75.81,75.81,0,0,1,5.4-11,21.89,21.89,0,0,1,3.35-4.36,6.47,6.47,0,0,1,3.05-1.87A4.14,4.14,0,0,1,51.39,55a9.46,9.46,0,0,1,1.91,4.55,28.51,28.51,0,0,1,.46,5.69A67.21,67.21,0,0,1,52.69,76c-.44,2.48-1,4.94-1.45,7.41-.94,4.84-1.86,9.69-2.6,14.57a45.6,45.6,0,0,0-.66,6.5,1.28,1.28,0,0,0,.06.43c0,.12,0,.28.18.32s.24-.16.33-.26a1.23,1.23,0,0,0,.22-.29,47.46,47.46,0,0,0,2.46-7.63c1.28-4.9,2.4-9.84,3.72-14.73.7-2.57,1.47-5.11,2.31-7.64.65-1.93,1.17-3.9,1.78-5.85a62.74,62.74,0,0,1,4.44-11A22.42,22.42,0,0,1,67.68,52,8.15,8.15,0,0,1,72,49.69l.52-.09Z" transform="translate(0 24.42)"/><path class="cls-1" d="M156.2,55.82a18.31,18.31,0,0,1-.75,1.78,116,116,0,0,1-11.6,19.7,122.85,122.85,0,0,1-11.19,13.44,117.05,117.05,0,0,1-17.36,14.92,111.64,111.64,0,0,1-15.45,9,111.17,111.17,0,0,1-20.46,7.49,117.45,117.45,0,0,1-14,2.74c-2.53.33-5.06.6-7.6.78-1.83.13-3.67.22-5.5.29-2.47.1-4.94,0-7.41,0a44.74,44.74,0,0,1-5.3-.44q-3.67-.42-7.33-1A148.57,148.57,0,0,1,16.1,121c-1.24-.35-2.47-.75-3.71-1.11a.55.55,0,0,1-.39-.56c0-.64,0-1.28,0-1.93,0-.4,0-.41.41-.29q5.43,1.68,10.93,3.13c3.72,1,7.45,1.87,11.24,2.51a48.65,48.65,0,0,0,5.4.55c3.26.18,6.53.17,9.8.12,2.57,0,5.14-.17,7.71-.33,2.85-.18,5.68-.49,8.5-.84a82.28,82.28,0,0,0,10.76-2.15,114.18,114.18,0,0,0,24.54-9.46,99.68,99.68,0,0,0,13.2-8.22c2.79-2.07,5.45-4.3,8.06-6.59q5-4.41,9.7-9.22,5.33-5.48,10.16-11.4a170.28,170.28,0,0,0,10.33-14c1.11-1.69,2.19-3.39,3.2-5.13A.49.49,0,0,1,156.2,55.82Z" transform="translate(0 24.42)"/><path class="cls-1" d="M28.63,43.45h1.08a4.85,4.85,0,0,1,2,.65,4.65,4.65,0,0,1,2.45,3.17c.08.32,0,.66.08,1l.08,0,.11-.15a4.75,4.75,0,0,1,4.32-2,4.44,4.44,0,0,1,3.95,2.76,9.85,9.85,0,0,1,.52,1.59l0,1.5a4.93,4.93,0,0,1-4.07,3.62,21.76,21.76,0,0,0-2.71.74,12.46,12.46,0,0,0-5.21,2.88c-.21.21-.33.16-.39-.16a9.12,9.12,0,0,0-1.17-2.91A19.39,19.39,0,0,0,26,51.69a3.7,3.7,0,0,1-1.1-1.52,5.07,5.07,0,0,1,1-5.36A4.54,4.54,0,0,1,28.63,43.45Z" transform="translate(0 24.42)"/><path class="cls-1" d="M98.91,80.74h.4a4,4,0,0,1,.5.07c3.86.85,6,4.25,4.68,8.19a9.52,9.52,0,0,1-1.22,2.18A30.84,30.84,0,0,0,101,95.08a14.31,14.31,0,0,0-1.56,5.61c0,.09,0,.2-.1.25s-.23,0-.32-.11a8.61,8.61,0,0,0-1.56-1.13,18.49,18.49,0,0,0-7.53-2.18,5.64,5.64,0,0,1-3.14-.94,6.94,6.94,0,0,1-2.68-4.8,5.57,5.57,0,0,1,4.22-6.22,4.9,4.9,0,0,1,5.23,1.77c.08.09.13.23.3.24,0,0,0-.08,0-.11a6.14,6.14,0,0,1,2.21-5.61A4.68,4.68,0,0,1,98.91,80.74Z" transform="translate(0 24.42)"/><path class="cls-1" d="M114.39,59.27l0,1.06a4.09,4.09,0,0,1-3,3c-.69.18-1.39.33-2.07.54a10.93,10.93,0,0,0-4.85,2.55c-.25.25-.33.06-.37-.16a10.39,10.39,0,0,0-2-4,14.66,14.66,0,0,0-2-2.14,4.08,4.08,0,0,1,2-6.83l.56-.11h0a4.74,4.74,0,0,1,2.32.71,3.92,3.92,0,0,1,1.84,2.49c.07.28,0,.56.07.84,0,0,.08,0,.09,0l.09-.11a3.94,3.94,0,0,1,3.73-1.59A3.7,3.7,0,0,1,114,57.93,8.93,8.93,0,0,1,114.39,59.27Z" transform="translate(0 24.42)"/><g id="Shape_6" data-name="Shape 6"><path class="cls-2" d="M134.5,40.93v0a.52.52,0,0,0,.4-.48.49.49,0,0,0-.2-.42,1,1,0,0,0-.67-.16,4.28,4.28,0,0,0-.74.06v2h.45v-.8H134c.25,0,.37.1.41.31a1.78,1.78,0,0,0,.15.49H135a1.75,1.75,0,0,1-.15-.49C134.78,41.15,134.69,41,134.5,40.93Zm-.54-.14h-.21v-.58l.25,0c.28,0,.42.12.42.3S134.21,40.79,134,40.79Zm.1-1.92h0a2,2,0,0,0-1.92,1.38,2,2,0,1,0,3.92.64A2,2,0,0,0,134.06,38.87Zm0,3.6a1.6,1.6,0,0,1,0-3.2h0a1.54,1.54,0,0,1,1.5,1.61A1.52,1.52,0,0,1,134.06,42.47Z" transform="translate(0 24.42)"/></g><path id="SVGID-7" data-name="SVGID" class="cls-1" d="M183.79,17.76q17.64,3,29.55,22.56v62.39q0,8-4,11.31a10.43,10.43,0,0,1-6.87,2.37v1.52h24.81v-1.52A10.39,10.39,0,0,1,220.4,114q-4-3.28-4-11.31V45.91l33.39,66.89q5.78,12.83,13.25,20.8,10.22,10.93,27,10.94V143a18.7,18.7,0,0,1-8.51-2.37q-8.46-5.6-20.92-30.83l-1.7-3.34,29.67-65.25v66.1a7.6,7.6,0,0,1-1.91,5.5,10.49,10.49,0,0,1-4.47,2.77,15.81,15.81,0,0,1-4.5.79v1.52h32.71v-1.52a16,16,0,0,1-4.47-.79,10.47,10.47,0,0,1-4.5-2.77,7.6,7.6,0,0,1-1.91-5.5V44.57a7.6,7.6,0,0,1,1.91-5.5,10.47,10.47,0,0,1,4.5-2.77,16,16,0,0,1,4.47-.79V34H288.5l-31.44,68.84L227.94,44.57q-7.24-14.72-18.49-21.28a53.56,53.56,0,0,0-25.66-7Z" transform="translate(0 24.42)"/><g class="cls-3"><rect class="cls-1" x="165.68" y="-1.53" width="162.83" height="163.85" transform="matrix(0.94, -0.34, 0.34, 0.94, -12.6, 113.71)"/></g><path id="SVGID-8" data-name="SVGID" class="cls-1" d="M325.11,35.39a22.21,22.21,0,0,0-8.67,7.78,18.59,18.59,0,0,0-2.95,9.92,22.19,22.19,0,0,0,2,9.48,32.67,32.67,0,0,0,5.32,8,64.36,64.36,0,0,0,7.3,7q4,3.25,8.05,6.17,4.32,3.22,8,6.3a33.48,33.48,0,0,1,6,6.26,11.47,11.47,0,0,1,2.28,6.78,15.46,15.46,0,0,1-2.58,8.91,18.36,18.36,0,0,1-6.81,6,18.86,18.86,0,0,1-7.18,2.37c-2,.12-3.23.18-3.8.18a25.73,25.73,0,0,1-8.45-1.46,25.18,25.18,0,0,1-9.28-5.86,29.94,29.94,0,0,1-6.81-10.8A45.22,45.22,0,0,1,305,86.17v-2h-1.52v2q0,11.67,3.28,19.3a29,29,0,0,0,8.61,11.77,24,24,0,0,0,10,5,44.58,44.58,0,0,0,7.75.88,34.2,34.2,0,0,0,6.63-.67,36.21,36.21,0,0,0,11.71-4.62,28.13,28.13,0,0,0,8.6-8.12,18.39,18.39,0,0,0,3.29-10.55,15.63,15.63,0,0,0-2.89-9,43.38,43.38,0,0,0-7.39-8.09q-4.5-3.89-9.49-7.63t-9.39-7.54A42.2,42.2,0,0,1,327,59a15.18,15.18,0,0,1-2.83-8.73,13.66,13.66,0,0,1,3.08-9.12,15.2,15.2,0,0,1,6.84-4.9A21.9,21.9,0,0,1,340.86,35a17,17,0,0,1,12,4.68q3.71,3.52,5,10h1.77l-1.52-11.55a100.33,100.33,0,0,0-9.67-4.11A28,28,0,0,0,339,32.35a29.28,29.28,0,0,0-13.92,3" transform="translate(0 24.42)"/><g class="cls-4"><rect class="cls-1" x="289.75" y="24.85" width="87.32" height="105.79" transform="translate(-6.5 143.05) rotate(-19.98)"/></g><path id="SVGID-9" data-name="SVGID" class="cls-1" d="M415.32,37.82A40.71,40.71,0,0,0,399,53.09q-5.89,9.78-5.9,22.86A43.47,43.47,0,0,0,399,98.78a40.43,40.43,0,0,0,16.33,15.27q10.43,5.45,24.11,5.44,15.56,0,25.78-8.39l8.27,6.81H475V84a7.63,7.63,0,0,1,1.91-5.51,10.45,10.45,0,0,1,4.5-2.76,15.61,15.61,0,0,1,4.47-.79V73.4H453.17v1.52a15.35,15.35,0,0,1,4.5.79,10.47,10.47,0,0,1,4.47,2.76A7.63,7.63,0,0,1,464.05,84v16.78a10.71,10.71,0,0,1-2.55,7.15,20.63,20.63,0,0,1-6.42,5,33.91,33.91,0,0,1-8.05,2.92,34.45,34.45,0,0,1-7.48.94,31.66,31.66,0,0,1-15-3.43,32.77,32.77,0,0,1-10.92-9.22A41.34,41.34,0,0,1,407,91a51,51,0,0,1-2.25-15,49.92,49.92,0,0,1,2.19-14.53,44.38,44.38,0,0,1,6.45-13.17,33,33,0,0,1,10.52-9.51,28.38,28.38,0,0,1,14.41-3.59,29,29,0,0,1,11.55,2.46,33.77,33.77,0,0,1,10.77,7.66,48.86,48.86,0,0,1,8.87,13.35H471L466.06,34h-1.52v.43a4.31,4.31,0,0,1-.37,1.76,1.7,1.7,0,0,1-1.76,1.16,7,7,0,0,1-2.19-.4c-.81-.26-1.74-.6-2.79-1a74.52,74.52,0,0,0-7.3-2.37,40.56,40.56,0,0,0-10.7-1.22q-13.69,0-24.11,5.47" transform="translate(0 24.42)"/><g class="cls-5"><rect class="cls-1" x="380.99" y="19.12" width="116.99" height="113.6" transform="translate(0.51 179.19) rotate(-19.98)"/></g><path id="SVGID-10" data-name="SVGID" class="cls-1" d="M532.73,28.91a81.24,81.24,0,0,0-17.2,5.26,59,59,0,0,0-15,9.31,43,43,0,0,0-10.68,13.77,41.78,41.78,0,0,0-4,18.7,43.47,43.47,0,0,0,5.9,22.83,40.43,40.43,0,0,0,16.33,15.27q10.42,5.45,24.11,5.44t24.17-5.44a40.47,40.47,0,0,0,16.39-15.27A43.47,43.47,0,0,0,578.68,76q0-13.08-7-22.47A35.86,35.86,0,0,0,555,40.56,55.58,55.58,0,0,0,536.11,37a66.83,66.83,0,0,0-10,.79V40a42.42,42.42,0,0,1,7.6-.73A30.68,30.68,0,0,1,547,42.08a33,33,0,0,1,14.57,13.35A39.28,39.28,0,0,1,566.94,76a48.16,48.16,0,0,1-4.35,20.74,36.19,36.19,0,0,1-12.13,14.65,33.4,33.4,0,0,1-36.45,0,36.12,36.12,0,0,1-12.17-14.65A48.15,48.15,0,0,1,497.5,76a41.76,41.76,0,0,1,3.4-17.3,42.76,42.76,0,0,1,9-13.1,52.44,52.44,0,0,1,12.5-9.13,61.89,61.89,0,0,1,14-5.32,57.39,57.39,0,0,1,13.41-1.73V27.24a93.26,93.26,0,0,0-17.12,1.67" transform="translate(0 24.42)"/><g class="cls-6"><rect class="cls-1" x="472.91" y="14.16" width="118.73" height="118.4" transform="translate(6.97 210.74) rotate(-19.98)"/></g><path id="SVGID-11" data-name="SVGID" class="cls-1" d="M578.67,34v1.52a15.69,15.69,0,0,1,4.5.79,10.37,10.37,0,0,1,4.47,2.77,7.56,7.56,0,0,1,1.92,5.5v62.76a7.56,7.56,0,0,1-1.92,5.5,10.37,10.37,0,0,1-4.47,2.77,15.69,15.69,0,0,1-4.5.79v1.52a31.9,31.9,0,0,1,5.23-.43A39.4,39.4,0,0,1,600,121.07q3.7,1.7,7.35,3.65c2.27,1.17,4.57,2.29,6.88,3.34a35.43,35.43,0,0,0,14.65,3.59q11.07,0,21.22-9.06l.43-.43-.67-1.39a50.48,50.48,0,0,1-7.36,3,26.53,26.53,0,0,1-7.23,1,40.41,40.41,0,0,1-11.65-1.67q-5.57-1.68-11.1-3.86a123,123,0,0,0-12-4.08V44.57a7.56,7.56,0,0,1,1.92-5.5,10.47,10.47,0,0,1,4.5-2.77,15.85,15.85,0,0,1,4.47-.79V34Z" transform="translate(0 24.42)"/><g class="cls-7"><rect class="cls-1" x="564.15" y="24.66" width="100.87" height="116.32" transform="translate(8.7 239.44) rotate(-19.98)"/></g><path id="SVGID-12" data-name="SVGID" class="cls-1" d="M661.74,35.52H673a33.81,33.81,0,0,1,18.75,5.16A34.85,34.85,0,0,1,704.2,54.93a46.89,46.89,0,0,1,4.46,20.9,46.92,46.92,0,0,1-4.46,20.9A34.85,34.85,0,0,1,691.73,111,33.89,33.89,0,0,1,673,116.13H661.74ZM639.3,32.71v1.57a16,16,0,0,1,4.63.81,10.72,10.72,0,0,1,4.59,2.84,7.79,7.79,0,0,1,2,5.65v64.49a7.81,7.81,0,0,1-2,5.66,10.72,10.72,0,0,1-4.59,2.84,16,16,0,0,1-4.63.81v1.56H673q14.07,0,24.84-5.18a39.65,39.65,0,0,0,16.84-14.88q6.06-9.67,6.06-23t-6.06-23.09A39.69,39.69,0,0,0,697.82,37.9q-10.77-5.19-24.9-5.19Z" transform="translate(0 24.42)"/><g class="cls-8"><rect class="cls-1" x="627.02" y="21.4" width="105.99" height="108.86" transform="translate(15.03 261.38) rotate(-19.98)"/></g></g></g></svg>